<svg width="401" height="400" viewBox="0 0 401 400" fill="none" xmlns="http://www.w3.org/2000/svg">
<g filter="url(#filter0_i)">
<path fill-rule="evenodd" clip-rule="evenodd" d="M35.5 0C16.17 0 0.5 15.67 0.5 35V206.277C0.5 213.291 3.473 219.977 8.68135 224.675L26.484 240.733C37.0675 250.28 30.3142 267.849 16.0612 267.849V267.849C7.46698 267.849 0.5 274.816 0.5 283.41V365C0.5 384.33 16.17 400 35.5 400H365.5C384.83 400 400.5 384.33 400.5 365V134.922C400.5 129.178 398.19 123.676 394.09 119.653V119.653C384.156 109.906 386.526 93.1091 393.449 81.036C397.939 73.2063 400.5 64.1693 400.5 54.5455C400.5 24.6657 375.812 0.443459 345.359 0.443459C335.688 0.443459 326.598 2.88624 318.696 7.17727C306.109 14.0122 288.934 16.4787 278.71 6.44769V6.44769C274.498 2.3151 268.833 0 262.932 0H35.5Z" fill="#C4C4C4" fill-opacity="0.01"/>
</g>
<defs>
<filter id="filter0_i" x="0.5" y="0" width="400" height="400" filterUnits="userSpaceOnUse" color-interpolation-filters="sRGB">
<feFlood flood-opacity="0" result="BackgroundImageFix"/>
<feBlend mode="normal" in="SourceGraphic" in2="BackgroundImageFix" result="shape"/>
<feColorMatrix in="SourceAlpha" type="matrix" values="0 0 0 0 0 0 0 0 0 0 0 0 0 0 0 0 0 0 127 0" result="hardAlpha"/>
<feOffset/>
<feGaussianBlur stdDeviation="52"/>
<feComposite in2="hardAlpha" operator="arithmetic" k2="-1" k3="1"/>
<feColorMatrix type="matrix" values="0 0 0 0 1 0 0 0 0 1 0 0 0 0 1 0 0 0 0.44 0"/>
<feBlend mode="normal" in2="shape" result="effect1_innerShadow"/>
</filter>
</defs>
</svg>
