<svg width="400" height="400" viewBox="0 0 400 400" fill="none" xmlns="http://www.w3.org/2000/svg">
<g filter="url(#filter0_i)">
<path fill-rule="evenodd" clip-rule="evenodd" d="M95.5 400C114.273 400 131.78 388.657 146.545 369.064C150.869 363.327 159.371 362.332 164.922 366.893C189.882 387.402 223.728 400 261 400C337.768 400 400 346.555 400 280.628C400 261.178 394.583 242.813 384.974 226.588C382.908 223.099 382.681 218.807 384.306 215.093C393.832 193.328 400 158.555 400 119.372C400 53.4446 382.539 0 361 0C353.577 0 346.638 6.34796 340.731 17.3671C337.02 24.2905 327.715 26.8029 321.201 22.4123C300.341 8.35172 274.276 0 246 0C213.527 0 183.969 11.0153 161.863 29.0428C156.399 33.4983 148.091 32.6818 143.632 27.2215C129.499 9.91698 113.053 0 95.5 0C42.7568 0 0 89.5431 0 200C0 310.457 42.7568 400 95.5 400Z" fill="#C4C4C4" fill-opacity="0.01"/>
</g>
<defs>
<filter id="filter0_i" x="0" y="0" width="400" height="400" filterUnits="userSpaceOnUse" color-interpolation-filters="sRGB">
<feFlood flood-opacity="0" result="BackgroundImageFix"/>
<feBlend mode="normal" in="SourceGraphic" in2="BackgroundImageFix" result="shape"/>
<feColorMatrix in="SourceAlpha" type="matrix" values="0 0 0 0 0 0 0 0 0 0 0 0 0 0 0 0 0 0 127 0" result="hardAlpha"/>
<feOffset/>
<feGaussianBlur stdDeviation="52"/>
<feComposite in2="hardAlpha" operator="arithmetic" k2="-1" k3="1"/>
<feColorMatrix type="matrix" values="0 0 0 0 1 0 0 0 0 1 0 0 0 0 1 0 0 0 0.44 0"/>
<feBlend mode="normal" in2="shape" result="effect1_innerShadow"/>
</filter>
</defs>
</svg>
