<svg width="400" height="400" viewBox="0 0 400 400" fill="none" xmlns="http://www.w3.org/2000/svg">
<g filter="url(#filter0_i)">
<path d="M178.5 0C2.91722 0 0.0168028 85.1401 0.500205 127.211V138.521V194.514C0.500205 198.495 36 225.297 2.91723 269.825H23.2201V314.496C3.88402 314.496 -0.30546 328.671 0.0168082 335.758V378.282C0.0168082 396.015 15.4857 400.147 23.2201 399.996H170.658V378.282C170.658 393.844 186.127 399.242 193.861 399.996H333.081C391.089 399.996 401.724 293.838 399.791 240.759H364.019C375.943 236.084 399.791 210.449 399.791 145.307C399.791 74.3142 399.791 17.4564 364.019 17.4564C341.202 17.4564 332.92 33.4404 331.631 41.4325C303.5 0 293.5 0 178.5 0Z" fill="#C4C4C4" fill-opacity="0.01"/>
</g>
<defs>
<filter id="filter0_i" x="0" y="0" width="400" height="400" filterUnits="userSpaceOnUse" color-interpolation-filters="sRGB">
<feFlood flood-opacity="0" result="BackgroundImageFix"/>
<feBlend mode="normal" in="SourceGraphic" in2="BackgroundImageFix" result="shape"/>
<feColorMatrix in="SourceAlpha" type="matrix" values="0 0 0 0 0 0 0 0 0 0 0 0 0 0 0 0 0 0 127 0" result="hardAlpha"/>
<feOffset/>
<feGaussianBlur stdDeviation="52"/>
<feComposite in2="hardAlpha" operator="arithmetic" k2="-1" k3="1"/>
<feColorMatrix type="matrix" values="0 0 0 0 1 0 0 0 0 1 0 0 0 0 1 0 0 0 0.44 0"/>
<feBlend mode="normal" in2="shape" result="effect1_innerShadow"/>
</filter>
</defs>
</svg>
