<svg width="400" height="400" viewBox="0 0 400 400" fill="none" xmlns="http://www.w3.org/2000/svg">
<g filter="url(#filter0_i)">
<path d="M343.03 39.6461C377.518 69.2877 393.918 115.532 398.604 158.386C403.196 201.154 396.074 240.618 382.86 277.996C369.552 315.461 350.246 351.013 319.319 372.571C288.393 394.128 246.032 401.691 205.172 399.691C164.311 397.692 124.95 386.131 90.0869 365.79C55.1304 345.45 24.6722 316.33 10.2398 281.038C-4.09898 245.659 -2.31835 204.109 9.02144 163.515C20.3612 122.834 41.1665 83.1089 75.1859 53.3804C109.205 23.6519 156.345 3.91977 206.203 0.529678C256.06 -2.86041 308.636 10.0046 343.03 39.6461Z" fill="#C4C4C4" fill-opacity="0.01"/>
</g>
<defs>
<filter id="filter0_i" x="0" y="0" width="400" height="400" filterUnits="userSpaceOnUse" color-interpolation-filters="sRGB">
<feFlood flood-opacity="0" result="BackgroundImageFix"/>
<feBlend mode="normal" in="SourceGraphic" in2="BackgroundImageFix" result="shape"/>
<feColorMatrix in="SourceAlpha" type="matrix" values="0 0 0 0 0 0 0 0 0 0 0 0 0 0 0 0 0 0 127 0" result="hardAlpha"/>
<feOffset/>
<feGaussianBlur stdDeviation="52"/>
<feComposite in2="hardAlpha" operator="arithmetic" k2="-1" k3="1"/>
<feColorMatrix type="matrix" values="0 0 0 0 1 0 0 0 0 1 0 0 0 0 1 0 0 0 0.44 0"/>
<feBlend mode="normal" in2="shape" result="effect1_innerShadow"/>
</filter>
</defs>
</svg>
