<svg width="400" height="400" viewBox="0 0 400 400" fill="none" xmlns="http://www.w3.org/2000/svg">
<g filter="url(#filter0_i)">
<path d="M309.822 29.9064C342.643 49.4403 370.42 78.8938 385.551 113.841C400.757 148.789 403.316 189.154 396.24 227.001C389.164 264.924 372.453 300.253 348.289 329.783C324.124 359.389 292.583 383.12 257.203 393.497C221.823 403.951 182.678 401.051 145.717 390.14C108.831 379.228 74.1284 360.457 49.7385 332.301C25.4239 304.144 11.4976 266.755 4.57207 227.382C-2.42873 188.085 -2.42874 146.805 11.9492 111.018C26.3272 75.3075 55.0079 45.0909 88.958 26.0148C122.833 7.01503 161.902 -0.844326 200.444 0.0713274C238.986 0.910676 276.926 10.4487 309.822 29.9064Z" fill="#C4C4C4" fill-opacity="0.01"/>
</g>
<defs>
<filter id="filter0_i" x="0" y="0" width="400" height="400" filterUnits="userSpaceOnUse" color-interpolation-filters="sRGB">
<feFlood flood-opacity="0" result="BackgroundImageFix"/>
<feBlend mode="normal" in="SourceGraphic" in2="BackgroundImageFix" result="shape"/>
<feColorMatrix in="SourceAlpha" type="matrix" values="0 0 0 0 0 0 0 0 0 0 0 0 0 0 0 0 0 0 127 0" result="hardAlpha"/>
<feOffset/>
<feGaussianBlur stdDeviation="52"/>
<feComposite in2="hardAlpha" operator="arithmetic" k2="-1" k3="1"/>
<feColorMatrix type="matrix" values="0 0 0 0 1 0 0 0 0 1 0 0 0 0 1 0 0 0 0.44 0"/>
<feBlend mode="normal" in2="shape" result="effect1_innerShadow"/>
</filter>
</defs>
</svg>
