<svg width="400" height="400" viewBox="0 0 400 400" fill="none" xmlns="http://www.w3.org/2000/svg">
<g filter="url(#filter0_i)">
<path fill-rule="evenodd" clip-rule="evenodd" d="M139.941 393.837C128.194 386.375 111.636 386.375 99.8896 393.837C93.5556 397.861 86.9202 400 80.0847 400C35.8552 400 0 310.457 0 200C0 89.5431 35.8552 0 80.0847 0C86.9202 0 93.5556 2.13864 99.8896 6.16261C111.636 13.6254 128.194 13.6254 139.941 6.16261C146.275 2.13864 152.91 0 159.746 0C166.581 0 173.217 2.13865 179.551 6.16262C191.297 13.6254 207.855 13.6254 219.602 6.16262C225.936 2.13865 232.571 0 239.407 0C246.344 0 253.075 2.2029 259.495 6.34388C271.284 13.9489 288.038 13.9489 299.827 6.34388C306.247 2.2029 312.978 0 319.915 0C364.145 0 400 89.5431 400 200C400 310.457 364.145 400 319.915 400C312.978 400 306.247 397.797 299.827 393.656C288.038 386.051 271.284 386.051 259.495 393.656C253.075 397.797 246.344 400 239.407 400C232.571 400 225.936 397.861 219.602 393.837C207.855 386.375 191.297 386.375 179.551 393.837C173.217 397.861 166.581 400 159.746 400C152.91 400 146.275 397.861 139.941 393.837Z" fill="#C4C4C4" fill-opacity="0.01"/>
</g>
<defs>
<filter id="filter0_i" x="0" y="0" width="400" height="400" filterUnits="userSpaceOnUse" color-interpolation-filters="sRGB">
<feFlood flood-opacity="0" result="BackgroundImageFix"/>
<feBlend mode="normal" in="SourceGraphic" in2="BackgroundImageFix" result="shape"/>
<feColorMatrix in="SourceAlpha" type="matrix" values="0 0 0 0 0 0 0 0 0 0 0 0 0 0 0 0 0 0 127 0" result="hardAlpha"/>
<feOffset/>
<feGaussianBlur stdDeviation="52"/>
<feComposite in2="hardAlpha" operator="arithmetic" k2="-1" k3="1"/>
<feColorMatrix type="matrix" values="0 0 0 0 1 0 0 0 0 1 0 0 0 0 1 0 0 0 0.44 0"/>
<feBlend mode="normal" in2="shape" result="effect1_innerShadow"/>
</filter>
</defs>
</svg>
